<?xml version="1.0" encoding="utf-8"?>
<!-- Generator: Adobe Illustrator 26.0.3, SVG Export Plug-In . SVG Version: 6.00 Build 0)  -->
<svg version="1.1" id="Layer_1" xmlns="http://www.w3.org/2000/svg" xmlns:xlink="http://www.w3.org/1999/xlink" x="0px" y="0px"
	 viewBox="0 0 470 70" style="enable-background:new 0 0 470 70;" xml:space="preserve">
<path d="M15,28.2c0-0.2-0.1-0.4-0.2-0.6c-0.1-0.2-0.1-0.4-0.2-0.7c-0.1-0.4-0.3-0.7-0.4-1.1c-0.1-0.4-0.2-0.9-0.2-1.5
	c0.1-0.3,0.1-0.5,0.2-0.6c0.1-0.1,0.2-0.3,0.3-0.4l0.2-0.8h0.7c0.2,0,0.5,0,0.7,0c0.3,0,0.5,0,0.7,0c1.1,0,2.3,0,3.4-0.1
	c1.2-0.1,2.4-0.2,3.6-0.3c1.3-0.2,2.8-0.3,4.4-0.4c0.1-0.3,0.2-0.5,0.3-0.6c0.1-0.1,0.1-0.2,0.2-0.3l0.5-0.3c0.7,0,1.1,0.1,1.4,0.3
	c0.3,0.2,0.5,0.4,0.6,0.5c0.8-0.1,1.5-0.1,2.3-0.2c0.8-0.1,1.6-0.2,2.5-0.4c1.2-0.1,2.4-0.3,3.6-0.4c1.2-0.1,2.4-0.2,3.5-0.2
	c0.5,0,1,0,1.4,0c0.4,0,0.9,0.1,1.3,0.1l0.5,0.4c0.1,0.2,0.3,0.4,0.4,0.6c0.2,0.2,0.4,0.4,0.6,0.5c0.4,0.4,0.9,0.8,1.3,1.3
	c0.4,0.5,0.6,1.3,0.5,2.3l-0.2,0.4c-0.1,0.1-0.3,0.2-0.4,0.4l-0.4,0.6h-0.5c-0.3,0-0.5,0-0.7,0.1c-0.1,0-0.3,0.1-0.5,0.2
	c-0.1,0.1-0.2,0.1-0.4,0.2c-0.1,0-0.3,0.1-0.5,0.1c-0.3,0-0.6,0-0.7,0c-0.2,0-0.4,0-0.6,0c-0.9,0-1.8,0.1-2.9,0.2
	c-1,0.1-2,0.2-3,0.4c-0.7,0.1-1.4,0.2-2,0.3c-0.6,0.1-1.2,0.1-1.8,0.2c-0.3,0.8-0.6,1.4-0.8,2c-0.2,0.6-0.5,1.2-0.7,1.8
	c-0.3,0.6-0.5,1.2-0.7,1.8c-0.2,0.6-0.5,1.2-0.7,2c-0.4,0.5-0.6,1-0.9,1.5c-0.2,0.5-0.4,1-0.6,1.6c-0.4,0.5-0.8,1-1,1.6
	c-0.2,0.6-0.3,1.1-0.5,1.5l-0.2,0.7c-0.2,0.2-0.3,0.4-0.4,0.5c0,0.1-0.1,0.2-0.2,0.4c-0.1,0.4-0.2,0.7-0.4,1.1
	c-0.1,0.1-0.1,0.3-0.2,0.5c-0.1,0.1-0.1,0.3,0,0.4c-0.1,0.3-0.1,0.6-0.3,0.7c0,0.2,0,0.4,0,0.5c0,0.2-0.1,0.4-0.1,0.5
	c-0.1,0.2-0.1,0.4-0.1,0.6c0,0.1,0,0.3,0,0.4c0.1,0.1,0.2,0.2,0.3,0.4c0.1,0.1,0.2,0.3,0.2,0.4c0.1,0.1,0.1,0.1,0.2,0.1
	s0.2,0.1,0.2,0.1c0.2,0.2,0.5,0.3,0.7,0.4l0.4,0.5c0.2,1.1,0,1.9-0.5,2.5c-0.5,0.7-1.4,1-2.6,1l-0.6,0c-0.2-0.2-0.3-0.3-0.4-0.4
	c-0.3-0.1-0.5-0.2-0.7-0.3c-0.2-0.1-0.3-0.2-0.5-0.4c-0.1-0.1-0.1-0.1-0.2-0.1c-0.1,0-0.2-0.1-0.2-0.1c-0.3-0.1-0.5-0.2-0.7-0.3
	L21.8,52c0-0.3,0-0.5,0-0.6c-0.2-0.3-0.4-0.7-0.6-1.1c-0.1-0.4-0.2-0.8-0.3-1.2c-0.1-0.3-0.2-0.6-0.3-0.9c-0.1-0.3-0.2-0.5-0.3-0.7
	c-0.1-2.1,0.1-3.8,0.6-5.1c0.4-1.4,0.9-2.8,1.5-4.1c0.3-0.7,0.6-1.4,0.8-2.2c0.3-0.7,0.5-1.5,0.7-2.2l0.5-0.5
	c0.2-0.2,0.3-0.3,0.4-0.3c0-0.4,0.1-0.7,0.2-1.1c0.1-0.4,0.3-0.8,0.5-1.1c0.1-0.2,0.2-0.5,0.3-0.7c0.1-0.2,0.2-0.4,0.2-0.6
	c-0.2,0-0.4,0-0.6,0c-0.1,0-0.3,0-0.5,0c-0.4,0.1-0.7,0.1-1.1,0.1c-0.3,0-0.5,0-0.6,0c-0.2,0.1-0.5,0.2-0.7,0.2c-0.2,0-0.4,0-0.6,0
	h-0.5H21c-0.4,0-0.6,0-0.8,0.1c-0.4,0-0.7,0-0.8,0c-0.1,0-0.2,0-0.4,0h-0.5H18c-0.2,0-0.5,0-0.8,0c-0.3-0.1-0.6-0.2-0.9-0.4
	l-0.3-0.4c-0.2-0.3-0.3-0.5-0.5-0.5L15,28.7V28.2z M62.3,49.3c-0.2,0.5-0.4,1-0.8,1.5c-0.3,0.5-0.7,1-1.2,1.4
	c-0.4,0.4-0.9,0.7-1.5,1c-0.6,0.3-1.1,0.4-1.8,0.4c-0.4-0.1-0.6-0.2-0.8-0.3c-0.1-0.1-0.2-0.2-0.4-0.3c-0.1-0.1-0.2-0.1-0.3-0.1
	c-0.1-0.1-0.1-0.1-0.2-0.1L55,52.6l0.2-0.6c0.1-0.2,0-0.4,0-0.5c-0.1-0.1-0.3-0.3-0.5-0.6c-0.1-0.1-0.2-0.2-0.3-0.3
	c-0.1-0.1-0.2-0.2-0.2-0.3l-0.7-0.8l1.2-0.3c0.7-0.2,1.2-0.5,1.5-0.8c0.3-0.3,0.4-0.9,0.3-1.6c-0.6-0.1-1.1-0.1-1.5,0
	c-0.4,0.1-0.8,0.2-1.2,0.3c-0.5,0.1-1.1,0.3-1.6,0.4c-0.5,0.1-1.1,0.1-1.8,0.1c-0.2,0-0.5,0-0.7,0c-0.2,0-0.4-0.1-0.7-0.1l-0.4-0.1
	c-0.1-0.3-0.1-0.5-0.2-0.5c-0.1-0.1-0.1-0.1-0.2-0.2c-0.1-0.1-0.3-0.3-0.5-0.6c-0.1-0.3-0.2-0.6-0.1-1c-0.1-0.3-0.2-0.5-0.3-0.8
	c-0.2,0.4-0.3,0.7-0.4,1.1l-0.2,0.4L46.3,46c-0.1,0-0.1,0.1-0.1,0.2c0,0.1,0,0.2,0,0.2l-0.2,0.7c-0.1,0.1-0.1,0.1-0.2,0.2
	c-0.1,0-0.1,0.1-0.2,0.1c-0.1,0.3-0.1,0.5-0.2,0.8c-0.1,0.3-0.2,0.5-0.3,0.7c-0.1,0.4-0.3,0.8-0.4,1.1c-0.1,0.4-0.1,0.7-0.1,1.1
	l-0.2,0.5c-0.1,0.2-0.3,0.3-0.5,0.4c-0.2,0.1-0.4,0.2-0.5,0.3c-0.1,0.1-0.1,0.1-0.3,0.2c-0.1,0-0.2,0.1-0.2,0.1l-0.1,0.5l-0.5,0.1
	c-0.3,0.1-0.6,0.1-0.7,0.1c-0.1,0-0.3,0-0.4,0l-0.4,0c-0.3-0.3-0.6-0.5-0.7-0.6c-0.2-0.2-0.4-0.3-0.6-0.5c-0.3-0.4-0.4-0.6-0.4-0.8
	c0-0.2-0.1-0.3-0.1-0.5c-0.1-0.2-0.1-0.3-0.1-0.4c0-0.1-0.1-0.2-0.1-0.3L38,49.8l0.5-0.4l0-0.7c0.6-1.5,1.2-2.9,1.8-4.3
	c0.7-1.4,1.4-2.8,2.1-4.2c0.2-0.5,0.5-0.9,0.7-1.4c0.2-0.5,0.5-0.9,0.7-1.4c0-0.1,0-0.2,0-0.3c0-0.1,0-0.2,0.1-0.4
	c0.3-0.5,0.6-0.9,0.8-1.3c0.2-0.4,0.4-0.8,0.6-1.2c0.2-0.5,0.5-1,0.7-1.5c0.3-0.5,0.6-1,1-1.5l0.7-0.3c0.1,0,0.2-0.1,0.3-0.1
	c0.1-0.1,0.2-0.1,0.4-0.1l0.7,0.1c0.8-0.4,1.5-0.9,2.2-1.6c0.6-0.7,1.2-1.5,1.9-2.5l0.4-0.6l0.6,0.4c0.1,0.1,0.4,0.2,0.6,0.3
	c0.3,0.1,0.5,0.1,0.8,0.2c0.5,0.1,1,0.2,1.5,0.4c0.5,0.1,0.8,0.4,1.1,0.7c0.2,0.5,0.3,0.8,0.3,1.1c0,0.2,0.1,0.5,0.1,0.7
	c0.1,0.5,0.2,1,0.2,1.5c0.1,0.5,0.1,1.1,0.2,1.7c0.1,0.5,0.3,1,0.4,1.5c0.1,0.5,0.2,1,0.3,1.5c0.1,0.7,0.3,1.4,0.4,2.1
	c0.1,0.6,0.3,1.3,0.6,1.8c0.2,0,0.4,0,0.4,0c0.1-0.1,0.3-0.1,0.4-0.1c0.2,0,0.4-0.1,0.6-0.1l0.5,0l0.2,0.4c0,0.1,0.2,0.3,0.4,0.4
	c0.4,0,0.7,0.1,0.8,0.3c0.2,0.1,0.3,0.2,0.5,0.4c0.1,0.1,0.2,0.2,0.4,0.3l0.7,0.3l-0.4,0.7c-0.3,0.5-0.7,1-1.3,1.5
	c-0.5,0.5-1.1,0.9-1.8,1.2c0,0.2,0,0.4,0,0.5c0,0.1,0.1,0.3,0.1,0.5c0.1,0.5,0.2,1,0.2,1.5c0.1,0.5,0.1,1.1,0,1.6L62.3,49.3z
	 M49.6,41.7c0.9-0.1,1.7-0.1,2.4-0.2c0.7-0.1,1.5-0.2,2.4-0.4c-0.2-0.9-0.4-1.8-0.7-2.7c-0.2-1-0.5-1.9-0.7-2.9L52.8,36
	c-0.6,0.6-1.2,1.3-1.7,2.1c-0.5,0.8-1,1.5-1.4,2.2c-0.2,0.3-0.4,0.5-0.5,0.8c-0.2,0.3-0.3,0.5-0.5,0.8c0.2,0,0.3,0,0.5,0
	C49.3,41.8,49.5,41.7,49.6,41.7z M77.9,41.5c-0.2,0.2-0.4,0.4-0.5,0.7c-0.1,0.2-0.3,0.5-0.4,0.7c-0.1,0.3-0.3,0.6-0.5,0.9
	c-0.2,0.3-0.4,0.6-0.7,0.8c-0.1,0.4-0.3,0.8-0.4,1.1c-0.1,0.2-0.4,0.5-0.7,0.8c-0.3,1.2-1,2.4-2.1,3.8c0,0.3-0.1,0.5-0.3,0.8
	c-0.1,0.2-0.2,0.5-0.4,0.7c-0.1,0.1-0.1,0.2-0.2,0.3c-0.1,0.1-0.1,0.2-0.1,0.2l-0.1,0.4c-0.1,0.2-0.3,0.4-0.5,0.6
	c-0.2,0.2-0.3,0.3-0.5,0.5c-0.1,0.1-0.2,0.2-0.3,0.4l-0.7,0.3c-2.1-0.3-3.4-1.4-3.9-3.4l0-0.4c0.1-0.1,0.1-0.3,0.1-0.4
	c0.1-0.2,0.1-0.4,0.2-0.5c0.1-0.4,0.2-0.8,0.4-1.2c0.2-0.4,0.4-0.8,0.7-1.1c0.1-0.2,0.2-0.5,0.4-1c0.2-0.5,0.6-1.2,1.1-2.1
	c0.4-0.7,0.7-1.3,1-1.7c0.2-0.4,0.4-0.7,0.6-1c-0.3-0.5-0.6-0.9-1.1-1.3c-0.4-0.7-0.7-1.4-1-2.1c-0.3-0.7-0.5-1.3-0.6-1.8
	c0-0.4-0.1-0.7-0.1-1c-0.1-0.3-0.1-0.5-0.2-0.8c-0.1-0.3-0.2-0.6-0.2-1c-0.1-0.3-0.1-0.7-0.1-1c-0.1-0.2-0.2-0.4-0.3-0.6l0.1-0.4
	c0.1-0.2,0.1-0.5,0-0.8c-0.1-0.4-0.1-0.7-0.2-1.1c-0.1-0.3-0.1-0.6-0.2-1c-0.1-0.4-0.1-0.7,0-1.1c0-0.4,0.1-0.7,0.3-1
	c0.2-0.3,0.5-0.6,0.8-0.8l0.7,0c0.3,0.1,0.5,0.3,0.7,0.4c0.3,0.1,0.5,0.2,0.7,0.4c0.3,0.1,0.6,0.3,0.9,0.4s0.6,0.3,0.9,0.6l0.3,0.6
	l0.6,0.5v0.5c0,0.1,0,0.3,0,0.5c0,0.4,0.1,0.6,0.2,0.7l0.2,0.5c0,0.4,0,0.8,0.1,1.2c0.1,0.4,0.2,0.7,0.3,1c0.1,0.3,0.2,0.7,0.3,1
	s0.1,0.7,0,1.1c0.2-0.1,0.3-0.2,0.4-0.3C74,35.1,74,35,74.1,35c0.1,0,0.1-0.1,0.2-0.1l2.6-3.5l-0.1-0.4l0.9-0.9
	c0.2-0.2,0.5-0.5,0.7-0.7c0.2-0.2,0.4-0.4,0.6-0.7l0.5-0.4c0.9-1.5,2.3-2.4,4-2.7l0.6-0.1l0.2,0.6c0.1,0.3,0.4,0.6,0.7,0.9
	c0.4,0.3,0.8,0.5,1.2,0.7l0.4,0.3c0.1,0.3,0.2,0.5,0.2,0.7c0,0.1,0,0.3,0,0.4l0.2,0.4c-0.2,0.7-0.5,1.2-0.9,1.5
	c-0.3,0.3-0.6,0.6-1,0.9c-0.3,0.2-0.5,0.5-0.7,0.7c-0.2,0.2-0.4,0.4-0.5,0.7l-0.3,0.4c-0.6,0.4-1,0.8-1.2,1.4l-0.1,0.5h-0.5
	c0,0-0.1,0.1-0.2,0.2c-0.1,0.1-0.2,0.3-0.4,0.7c-0.2,0.3-0.4,0.5-0.4,0.6c-0.1,0.1-0.2,0.2-0.2,0.2c0,0.1-0.1,0.2-0.1,0.4
	c0,0.1-0.1,0.2-0.1,0.4c-0.4,0.4-0.6,0.7-0.7,0.9c-0.1,0.2-0.2,0.4-0.3,0.6c-0.1,0.2-0.2,0.5-0.4,0.7c-0.1,0.2-0.2,0.4-0.5,0.7
	L77.9,41.5z M93.5,52.5c-0.8,0.3-1.7,0.5-2.7,0.8c-1,0.3-1.9,0.4-2.9,0.4c-1.5,0-2.6-0.4-3.5-1.1c-0.1-0.3-0.3-0.5-0.4-0.7
	c-0.1-0.1-0.2-0.2-0.3-0.4c-0.1-0.1-0.1-0.3-0.1-0.6c-0.4-0.4-0.6-0.9-0.8-1.4c-0.2-0.6-0.4-1.1-0.4-1.7c-0.1-0.6-0.1-1.2,0-1.8
	c0.1-0.6,0.2-1.1,0.3-1.7c0.1-0.1,0.1-0.2,0.1-0.4c0-0.1,0.1-0.2,0.1-0.4c0.1-0.5,0.2-0.9,0.4-1.4c0.1-0.4,0.3-0.8,0.6-1.1
	c-0.1-0.3-0.1-0.6,0-0.9c0.1-0.3,0.2-0.6,0.4-0.9c0.4-1.1,0.7-2.1,1-2.8c0.3-0.8,0.6-1.6,0.9-2.3c0.5-1.3,1-2.6,1.4-3.9
	c0.4-1.3,0.8-2.7,1.2-4.2c0.2-0.1,0.4-0.2,0.5-0.3c0.2-0.1,0.3-0.1,0.4-0.1c0.5,0.3,1.1,0.5,1.8,0.8c0.7,0.2,1.3,0.4,1.8,0.4
	c0.2,0.1,0.4,0.3,0.4,0.4c0.1,0.1,0.1,0.1,0.2,0.2c0.3,0.4,0.6,0.8,0.8,1.2c0.2,0.4,0.3,0.9,0.2,1.5c-0.2,0.3-0.3,0.4-0.4,0.4
	c-0.1,0.6-0.3,1.1-0.5,1.5c-0.1,0.4-0.3,0.8-0.5,1.2c-0.2,0.4-0.4,0.9-0.6,1.3c-0.2,0.4-0.3,1-0.4,1.6c-0.1,0.1-0.2,0.3-0.3,0.4
	c0,0.1-0.1,0.2-0.1,0.4c-0.1,0.1-0.1,0.3-0.2,0.5c-0.1,0.1-0.2,0.3-0.3,0.4c-0.1,0.8-0.2,1.4-0.4,1.8c-0.2,0.5-0.4,0.9-0.6,1.4
	c-0.4,0.8-0.7,1.7-1,2.5c-0.3,0.8-0.4,1.8-0.5,2.9c0.1-0.1,0.3-0.1,0.4-0.1c0.1,0,0.3,0,0.4,0c0.3,0,0.6,0,0.9,0.1
	c0.9-0.5,1.8-0.7,2.9-0.8c1.1-0.1,2.1-0.1,3.1-0.2c0.4,0,0.8,0,1.2,0c0.4,0,0.8,0,1.1-0.1c0.3,0.1,0.4,0.2,0.5,0.3
	c0.1,0,0.2,0,0.4,0c0.2,0,0.4,0,0.5,0c0.4,0.3,0.7,0.6,1,0.7s0.7,0.3,1,0.4c0.3,0.1,0.6,0.2,0.9,0.4c0.3,0.1,0.6,0.3,0.9,0.5
	l0.3,1.9c0.2,0.3,0.3,0.4,0.3,0.5c0,0.2-0.1,0.4-0.2,0.5l0.1,0.5c-0.4,0.1-0.7,0.2-0.9,0.3c-0.1,0.1-0.3,0.2-0.4,0.4
	c-0.2,0-0.4,0-0.5,0c-0.1,0-0.2,0-0.3,0c-0.4,0-0.9,0.1-1.5,0.2c-0.8-0.3-1.6-0.4-2.5-0.4c-0.3,0-0.7,0-1,0c-0.4,0-0.7,0.1-1.1,0.1
	c-0.4,0.1-0.7,0.1-1.1,0.1c-0.4,0-0.7,0-1.1,0L93.5,52.5z M131.5,39.8c0,0.4,0,0.7,0.1,1c0.1,0.3,0.2,0.6,0.3,1
	c0.1,0.3,0.3,0.6,0.4,0.9c0.1,0.3,0.2,0.6,0.3,1c0.1,0.4,0.1,0.9,0,1.4c-0.1,0.5-0.2,0.9-0.3,1.4c-0.1,0.4-0.3,0.8-0.6,1.2
	c-0.2,0.4-0.5,0.6-0.8,0.8c-0.4,0.5-0.9,0.9-1.5,1.2c-0.6,0.3-1.1,0.6-1.6,1.1c-0.3,0.2-0.7,0.4-1.1,0.4c-0.4,0.1-0.8,0.2-1.2,0.3
	c-0.3,0.2-0.7,0.4-1.1,0.6c-0.4,0.2-0.9,0.4-1.4,0.5c-0.5,0.1-0.9,0.3-1.4,0.4c-0.5,0.1-0.9,0.1-1.2,0c-0.9,0.3-1.7,0.5-2.6,0.6
	c-0.8,0.1-1.8,0.1-2.9-0.2c-1.1,0.1-2,0.1-2.9-0.1c-0.9-0.2-1.7-0.6-2.4-1.1c-0.7-0.5-1.3-1.1-1.8-1.8c-0.5-0.7-0.9-1.5-1.2-2.3
	c-0.2-1.7-0.2-3.2,0.2-4.5c0.4-1.4,0.8-2.6,1.5-3.8c0.7-1.2,1.4-2.2,2.3-3.2c0.8-1,1.7-2,2.5-2.9c0.2,0.1,0.3,0.1,0.4,0
	c0.1-0.1,0.2-0.2,0.3-0.3c0.1-0.1,0.2-0.3,0.3-0.4c0.1-0.1,0.2-0.2,0.4-0.2c0.2-0.4,0.5-0.8,0.9-1c0.4-0.2,0.7-0.6,1-1
	c0.3-0.1,0.5-0.1,0.7-0.3c0.2-0.1,0.3-0.2,0.5-0.4c0.2-0.1,0.4-0.3,0.5-0.4c0.2-0.1,0.4-0.2,0.6-0.3v-0.5c0.5-0.2,0.9-0.5,1.1-0.8
	c0.3-0.3,0.6-0.7,0.9-1.1c0.3,0,0.5,0,0.6,0c0.2,0,0.4,0,0.7-0.1c0.2-0.4,0.4-0.7,0.6-0.9c0.2-0.2,0.5-0.4,0.9-0.7
	c0.4,0.2,0.7,0.3,1.1,0.4c0.4,0.1,0.8,0.2,1.1,0.6c0,0.3,0.1,0.5,0.3,0.7c0.1,0.1,0.3,0.3,0.5,0.4c0.2,0.1,0.3,0.2,0.5,0.4
	c0.2,0.1,0.3,0.4,0.4,0.6c0.1,0,0.2,0,0.2,0c0.1-0.1,0.1-0.1,0.3,0c0.1,0.4,0.2,0.7,0.3,0.8c0.1,0.1,0.2,0.4,0.4,0.7
	c-0.1,0.3-0.3,0.6-0.4,0.9c-0.1,0.3-0.2,0.5-0.5,0.7c0,0.2,0,0.3,0.2,0.4c0.1,0,0.2,0.1,0.3,0.2c0,0.3,0,0.5-0.1,0.6
	c0.7,1.1,1.3,2.4,1.9,3.6C130.2,37.5,130.8,38.7,131.5,39.8z M126,44c0.1-0.3,0.3-0.6,0.4-0.8c0.2-0.2,0.3-0.5,0.4-0.9
	c-0.1-0.2-0.2-0.4-0.3-0.5c0-0.1,0-0.4,0-0.7c-0.6-0.9-1.2-1.9-1.7-2.9c-0.5-1.1-1-2-1.6-2.9c-0.1,0.1-0.2,0.2-0.3,0.4
	c-0.1,0.1-0.3,0.1-0.5-0.1c-0.1,0.2-0.2,0.4-0.3,0.5c-0.1,0.1-0.3,0.1-0.5,0.1c-0.2,0-0.4-0.1-0.6-0.1c-0.2-0.1-0.3-0.2-0.5-0.3
	c-0.8,0.7-1.7,1.3-2.5,2c-0.8,0.6-1.6,1.4-2.3,2.2c-0.1,0.1-0.2,0.1-0.2,0.1c0,0-0.1,0-0.3,0c-0.2,0.6-0.5,1.1-0.9,1.5
	c-0.3,0.4-0.6,0.9-1,1.4c-0.3,0.5-0.6,1-0.8,1.5c-0.2,0.5-0.4,1.1-0.4,1.8c0.5,0.4,1.1,0.7,1.8,0.7c0.7,0.1,1.4,0.1,2.1,0
	c0.7-0.1,1.4-0.1,2.1-0.3c0.7-0.1,1.3-0.2,1.9-0.2c1.2-0.3,2.3-0.7,3.2-1.1C124.1,45,125.1,44.5,126,44z M141.3,48.4
	c-0.3,1.2-0.6,2.1-0.9,2.7c-0.2,0.6-0.6,1.2-1.1,1.8c-0.4-0.1-0.6,0-0.8,0.1c-0.1,0.1-0.3,0.3-0.5,0.4c-0.3,0.1-0.5,0.1-0.6,0
	c-0.1-0.1-0.2-0.1-0.3-0.2c-0.1-0.1-0.2-0.1-0.4-0.2c-0.1-0.1-0.3-0.1-0.6-0.1c-0.1-0.2-0.1-0.5-0.2-0.7c-0.1-0.2-0.2-0.3-0.6-0.2
	c0.1-0.2,0.1-0.4,0-0.6c0-0.2-0.1-0.3-0.1-0.4c0-0.1-0.1-0.3-0.1-0.4c0-0.1,0-0.3,0-0.5c-0.1,0-0.3-0.1-0.4-0.3
	c-0.1-0.2-0.2-0.4-0.3-0.6c0.1-0.5,0.2-1,0.3-1.5c0.1-0.5,0.2-0.9,0.3-1.3c0.1-0.4,0.3-0.8,0.4-1.2c0.1-0.4,0-0.8-0.1-1.3
	c0.1,0.1,0.2,0.1,0.3,0c0.1-0.1,0.1-0.3,0.1-0.5c0-0.2,0-0.5,0-0.7c0-0.2,0-0.4,0-0.6c0.3-0.8,0.5-1.5,0.7-2.3
	c0.2-0.8,0.4-1.6,0.5-2.4c0.2-0.8,0.4-1.6,0.5-2.3c0.2-0.8,0.4-1.5,0.7-2.1c0.3-0.1,0.7,0,1.1,0.1c0.4,0.1,0.7,0.3,0.7,0.5
	c0.8-0.6,1.4-1.3,2-2.1c0.6-0.8,1.2-1.7,1.8-2.5c0.6-0.8,1.3-1.5,2-2.1c0.8-0.6,1.7-1,2.9-1.1c0.6,0.4,1.2,0.9,1.9,1.4
	c0.7,0.4,1.3,1,1.8,1.8c0.2,0.1,0.4,0.2,0.6,0.4c0.2,0.1,0.4,0.2,0.6,0.4v0.5c0.4,0.3,0.6,0.7,0.8,1.1c0.2,0.4,0.4,0.9,0.6,1.4
	c0.2,0.5,0.4,1,0.5,1.5c0.2,0.5,0.4,0.9,0.6,1.4c-0.1,0.1-0.1,0.3-0.1,0.4c0,0.1,0,0.2,0,0.3c0.1,0.1,0.1,0.2,0.1,0.4
	c0,0.1,0,0.3,0,0.5c-0.1,1.3-0.5,2.3-1.3,3.1c-0.7,0.8-1.6,1.5-2.7,2c-1.1,0.5-2.2,0.9-3.4,1.3c-1.2,0.4-2.3,0.7-3.3,1.1
	c0,0.1,0,0.2,0.1,0.2c0.1,0,0.2,0.1,0.1,0.2c0.7,0.4,1.3,0.8,1.7,1.1c0.4,0.3,0.8,0.5,1.1,0.7c0.4,0.2,0.8,0.3,1.2,0.5
	c0.4,0.1,1,0.3,1.8,0.4c0.8,0.2,1.3,0.3,1.8,0.4c0.4,0.1,0.8,0.2,1.2,0.3c0.4,0.1,0.7,0.1,1.1,0.2c0.4,0,0.9,0.1,1.6,0.1
	c0.3,0.3,0.5,0.6,0.7,1c0.2,0.4,0.3,0.7,0.4,1.1c0.1,0.4,0.1,0.7,0,1.1c0,0.3-0.1,0.6-0.3,0.8c0,0.1,0.1,0.1,0.2,0.1
	c0.1,0,0.2,0,0.4,0c-0.2,0.1-0.3,0.3-0.4,0.4c-0.1,0.2-0.2,0.4-0.4,0.5c-0.1,0.2-0.2,0.3-0.4,0.4c-0.1,0.1-0.4,0.2-0.6,0.3
	c-0.9,0.4-2.1,0.4-3.4,0c-1.4-0.3-3.1-0.8-5.2-1.7c-1.1-0.4-1.9-0.8-2.6-1.1c-0.6-0.3-1.2-0.6-1.7-0.9c-0.5-0.3-0.9-0.7-1.3-1
	C142.3,49.4,141.8,48.9,141.3,48.4z M147.6,33.4c-0.3,0.5-0.7,0.9-1.1,1.3c-0.4,0.4-0.8,0.8-1.1,1.2c-0.4,0.4-0.7,0.8-1,1.3
	c-0.3,0.5-0.5,1-0.6,1.7c1-0.1,2.1-0.4,3.2-0.8c1.1-0.5,2.2-0.9,3.2-1.3c-0.1-0.9-0.4-1.6-1-2.2C148.6,33.9,148.1,33.5,147.6,33.4z
	 M175.8,33.2c0.1-0.4,0.1-0.8,0.2-1.1c0-0.3-0.1-0.6-0.3-0.9c0.1-0.5,0.2-0.8,0.3-1.1c0.1-0.3,0.1-0.6,0-1.1
	c0.3-0.8,0.7-1.4,1.2-1.9c0.6-0.5,1.2-1,1.8-1.3c0.6-0.4,1.3-0.7,2-0.9c0.7-0.3,1.4-0.5,2-0.7c0-0.1-0.1-0.2-0.2-0.2
	s-0.1-0.1-0.1-0.2c1.6-0.3,3.2-0.7,4.7-1.3c1.6-0.6,3.3-1.1,4.9-1.5c1.7-0.4,3.4-0.7,5.1-0.8c1.8-0.1,3.6,0.1,5.5,0.7
	c0.1,0.4,0.3,0.7,0.5,1c0.2,0.3,0.4,0.6,0.6,1c0.2,0.3,0.4,0.6,0.6,0.9c0.2,0.3,0.3,0.6,0.3,0.9c0.4,0.3,0.6,0.7,0.8,1.1
	c0.2,0.4,0.3,0.8,0.1,1.5c-0.3,0.2-0.7,0.5-1,0.7c-0.4,0.2-0.7,0.5-1.1,0.7c-1.3-0.3-2.6-0.4-4-0.4c-1.3,0.1-2.5,0.2-3.6,0.3
	c-0.3-0.4-0.7-0.5-1.1-0.5c-0.4,0-0.9,0.1-1.4,0.2c-0.5,0.1-0.9,0.2-1.4,0.4c-0.5,0.1-0.9,0.1-1.3,0.1c-0.3,0.3-0.7,0.5-1.3,0.6
	c-0.5,0.1-1.1,0.2-1.7,0.2c0,0.1,0,0.2,0.1,0.3c0.1,0.1,0.1,0.2,0,0.4c0.2,0.3,0.5,0.5,0.8,0.6c0.4,0.1,0.7,0.2,1.1,0.3
	c0.4,0.1,0.7,0.2,1,0.4c0.3,0.1,0.5,0.4,0.6,0.7c0.5,0,1,0.2,1.4,0.4c0.4,0.2,0.7,0.5,1,0.9c0.3,0.4,0.5,0.7,0.6,1.1
	c0.1,0.4,0.2,0.7,0.1,1.1c0.1,0.3,0.2,0.4,0.4,0.4c0.1-0.1,0.3,0,0.5,0.2c0.1,0.4,0.4,0.9,0.8,1.4c0.4,0.5,0.8,1,1,1.5
	c0.1,0.9,0.1,1.7,0.1,2.4c0.1,0.7-0.1,1.4-0.4,2.1c-0.5,1.3-1.2,2.4-2.2,3.5c-0.9,1-2,1.9-3.2,2.7c-1.2,0.8-2.4,1.4-3.7,2
	c-1.3,0.6-2.6,1-3.9,1.4c-0.1,0-0.3,0-0.4,0c-0.1,0-0.2-0.1-0.1-0.3c-0.3,0.2-0.6,0.4-0.9,0.4c-0.3,0.1-0.7,0.1-1.1,0
	c-0.4,0-0.8,0-1.2,0c-0.4,0-0.8,0-1.1,0c-0.2-0.2-0.5-0.5-0.7-0.7c-0.2-0.2-0.3-0.5-0.4-0.8c-0.1,0-0.2-0.1-0.2-0.3
	c0-0.2,0-0.3-0.2-0.3c0-0.1,0-0.2,0-0.3c0-0.1,0.1-0.1,0.1-0.2c0.1-0.1,0.2-0.1,0.1-0.2c0-0.1,0-0.1-0.1-0.1
	c-0.1-0.1-0.1-0.1-0.2-0.2c-0.1-0.1-0.1-0.1,0-0.2c0.1-0.3,0.2-0.6,0.1-0.9c0-0.4-0.1-0.8-0.1-1.1c0-0.4,0-0.7,0.1-1.1
	c0.1-0.4,0.3-0.6,0.7-0.9c1.2,0.1,2.3,0.1,3.4-0.2c1.1-0.2,2.1-0.6,3-1c1-0.4,1.9-0.8,2.7-1.3c0.9-0.5,1.7-1,2.5-1.4
	c0.1-0.3,0.2-0.5,0.4-0.7c0.2-0.2,0.4-0.4,0.6-0.6c0.2-0.2,0.4-0.4,0.6-0.6c0.2-0.2,0.3-0.5,0.4-0.8c0-0.1,0-0.2,0-0.3
	c0-0.1-0.1-0.1-0.1-0.1c-0.1-0.1-0.1-0.1-0.2-0.2c-0.1-0.1-0.1-0.1-0.1-0.3c-0.1,0-0.2-0.1-0.3-0.1c-0.1,0-0.1,0-0.2,0
	c-0.8-0.4-1.6-0.7-2.4-1c-0.8-0.3-1.6-0.6-2.2-0.9c-0.4,0.2-0.7,0.3-1.1,0.2c-0.4-0.1-0.8-0.2-1.3-0.4c-1.2-0.1-2.4-0.2-3.5-0.4
	c-1.1-0.2-2.1-0.5-3.2-0.9c-0.1-0.2-0.1-0.3-0.2-0.4c-0.1-0.1-0.3-0.2-0.6-0.1c-0.2-0.3-0.4-0.6-0.7-0.8
	C176.1,33.8,175.9,33.5,175.8,33.2z M225.9,53.6c-1-0.5-1.8-1.2-2.5-2.1c-0.6-0.9-1.2-1.9-1.8-3c-0.1-0.2-0.2-0.4-0.3-0.5
	c-0.1-0.2-0.2-0.3-0.3-0.5l-0.6-1.1l-0.4-0.7l-0.5,0.5l-0.8,0.7l-0.4,0.4c-0.8,0.7-1.5,1.4-2.3,2.1c-0.8,0.7-1.6,1.3-2.5,1.8
	c-0.9,0.5-1.8,1-2.7,1.3c-0.9,0.3-2,0.5-3.1,0.5l-1-0.5c-0.6-0.3-1-0.6-1.4-0.8c-0.4-0.2-0.8-0.6-1.3-1.1c-0.1-0.3-0.3-0.5-0.4-0.7
	c-0.1-0.2-0.2-0.5-0.3-0.7c-0.3-0.6-0.6-1.1-0.8-1.6c-0.2-0.5-0.4-1-0.6-1.6c0.1-0.4,0.2-1.1,0.4-2.1c0.2-1,0.4-2.1,0.6-3.3
	c0.3-1.2,0.5-2.3,0.8-3.5c0.3-1.2,0.6-2.2,0.9-3.1c0.3-0.8,0.6-1.6,0.9-2.4c0.4-0.8,0.7-1.6,1.1-2.3c0.4-0.7,0.8-1.3,1.3-1.8
	c0.5-0.5,1-0.8,1.5-0.9c0.1,0.2,0.3,0.4,0.5,0.4c0.2,0.1,0.3,0.2,0.5,0.2c0.4,0.6,0.8,1.1,1.2,1.5c0.4,0.4,0.9,0.8,1.4,1.2
	c-0.1,0.7-0.4,1.6-0.7,2.5c-0.3,0.9-0.6,1.8-0.9,2.7c-0.3,0.9-0.6,1.7-0.9,2.6c-0.3,0.8-0.5,1.6-0.7,2.2c-0.2,0.5-0.3,1.1-0.4,1.7
	c-0.3,1.1-0.5,2.6-0.7,4.4c0.4-0.1,0.7-0.3,1.1-0.6c0.4-0.3,0.8-0.6,1.2-0.9c0.4-0.4,0.9-0.7,1.3-1.2c0.6-0.6,1-1.1,1.4-1.5
	c0.4-0.5,0.7-1,1.1-1.5c0.4-0.5,0.7-1,1.1-1.6c0.4-0.6,0.8-1.3,1.3-2.2c0.4-0.7,0.9-1.5,1.4-2.2c0.5-0.8,1-1.6,1.5-2.3
	c0.5-0.8,1-1.5,1.4-2.1c0.5-0.6,0.9-1.1,1.3-1.5c0.2,0.3,0.5,0.6,0.9,0.8c0.4,0.3,0.8,0.5,1.2,0.6c0.2,0.3,0.3,0.5,0.5,0.7
	c0.2,0.2,0.3,0.4,0.5,0.6c0.2,0.3,0.3,0.5,0.5,0.7c0.2,0.2,0.3,0.5,0.5,0.7c0,0.2-0.1,0.5-0.1,0.8c-0.1,0.3-0.1,0.7-0.2,1.1
	c-0.1,0.4-0.1,0.8-0.2,1.2c-0.1,0.4-0.2,0.7-0.3,1.1c-0.2,1.1-0.4,1.9-0.5,2.5c-0.1,0.6-0.2,1-0.3,1.3c0,0.3-0.1,0.6-0.1,0.8
	c0,0.2,0,0.5,0,0.9c0,0.3,0,0.6,0,0.9c0,0.3,0.1,0.5,0.2,0.8c0.1,0.3,0.2,0.6,0.4,0.8l1.8-1.4c0.5-0.4,1-0.9,1.4-1.5
	c0.5-0.7,0.9-1.4,1.3-2.3c0.4-0.9,0.9-1.8,1.3-2.9c0.4-1,0.8-2.1,1.2-3.1c0.6-1.6,1.2-3.1,1.8-4.5c0.6-1.5,1.3-2.6,1.8-3.4
	c0.6,0.4,1.2,0.8,1.7,1.3c0.5,0.4,0.9,0.9,1.3,1.4c0.4,0.5,0.6,1.1,0.8,1.7c0.2,0.6,0.4,1.4,0.5,2.3c-0.5,1-1,2.1-1.5,3.2
	c-0.5,1.1-0.9,2.2-1.4,3.3c-0.6,1.4-1.2,2.8-1.8,4.2c-0.6,1.4-1.3,2.8-2.1,4c-0.8,1.3-1.6,2.4-2.5,3.5c-0.9,1.1-2,1.9-3.3,2.7
	c-0.3-0.1-0.6-0.1-0.8-0.1C226.6,53.2,226.2,53.3,225.9,53.6z M247.6,49.9c0.1,0.9,0.1,1.6-0.2,2.1c-0.2,0.5-0.6,0.9-1.1,1.1
	c-0.4,0.3-1,0.4-1.5,0.4c-0.6,0-1.1,0-1.7-0.1c-0.3-0.4-0.6-0.9-0.8-1.5c-0.2-0.6-0.5-1.2-0.7-1.9c-0.2-0.7-0.4-1.3-0.6-2
	c-0.1-0.6-0.3-1.2-0.4-1.7c0.1-0.4,0.2-0.7,0.3-1.2c0.1-0.5,0.1-0.9,0.1-1.4c0-0.5,0-0.9,0-1.4c0-0.5,0.1-1,0.1-1.4
	c0.2-1.2,0.5-2.4,0.9-3.5c0.4-1.1,0.7-2.3,1-3.5c0.1-0.3,0-0.5-0.1-0.7c-0.1-0.2-0.1-0.5,0-0.7c0-0.1,0.1-0.2,0.3-0.2
	c0.1-0.1,0.2-0.2,0.3-0.3c0.1-0.3,0.1-0.6,0-0.8c0-0.2,0-0.5,0.2-0.7c0.1-0.2,0.3-0.6,0.5-1c0.2-0.5,0.3-1,0.3-1.5
	c0.3-0.2,0.5-0.4,0.7-0.6c0.2-0.2,0.5-0.4,0.7-0.6c0.3-0.2,0.5-0.4,0.8-0.5c0.3-0.1,0.7-0.2,1.1-0.2c0.2,0.3,0.4,0.6,0.4,1
	c0.1,0.4,0.2,0.7,0.2,1.1c0.1,0.4,0.2,0.7,0.4,1c0.1,0.3,0.4,0.5,0.7,0.7c0,0.2,0,0.5,0,0.9c0,0.4,0,0.7,0,1.1
	c0,0.3,0.1,0.6,0.2,0.9c0.1,0.3,0.3,0.4,0.5,0.5c-0.5,1.4-1,2.8-1.5,4.2c-0.4,1.4-0.8,2.8-1.1,4.2c-0.3,1.4-0.5,2.8-0.6,4.2
	C247.2,47.1,247.3,48.5,247.6,49.9z M258.8,51.5c-0.2,1-0.7,1.7-1.5,2.1c-0.4,0-0.7,0-0.9,0c-0.2-0.1-0.4-0.1-0.6-0.2
	c-0.3-0.1-0.5-0.2-0.7-0.2l-0.5-0.4c-0.1-0.1-0.1-0.3-0.2-0.4c-0.1-0.1-0.2-0.3-0.3-0.4c-0.2-0.3-0.5-0.7-0.7-1.1
	c-0.2-0.8-0.2-1.6-0.1-2.1c0.1-0.6,0.3-1.2,0.4-1.7c0.1-0.2,0.1-0.4,0.2-0.5c0.1-0.2,0.1-0.4,0.2-0.6c-0.8-0.4-1.3-1-1.7-1.8
	c-0.4-0.8-0.6-1.5-0.7-2.2c0.1-0.6,0.2-1,0.5-1.3c0.2-0.4,0.5-0.6,0.8-0.8c0.3-0.2,0.6-0.4,1-0.5c0.4-0.1,0.7-0.2,1-0.3l0.6,0.2
	c0.3,0.3,0.5,0.5,0.8,0.6c0.2-0.1,0.3-0.2,0.4-0.4c0.1-0.2,0.2-0.4,0.2-0.7c0.1-0.3,0.2-0.5,0.3-0.8c0.1-0.3,0.2-0.5,0.4-0.8
	c0-0.4,0-0.7,0.2-1.1c-0.2-0.1-0.4-0.2-0.7-0.3c-0.1,0-0.2,0-0.4-0.1c-0.4-0.3-0.6-0.5-0.7-0.7c-0.1-0.2-0.2-0.4-0.4-0.6
	c-0.2-0.4-0.4-0.7-0.7-0.9l-0.4-0.3l0.2-0.4c0.1-0.1,0.1-0.1,0.1-0.2c0-0.1-0.1-0.2-0.2-0.4c-0.1-0.3-0.1-0.5,0-0.7l0.1-0.4
	c0.2-0.3,0.4-0.5,0.4-0.5l0.4-0.4c0.6-0.1,1.2-0.3,1.7-0.5c0.6-0.2,1.2-0.4,1.8-0.6c0.6-0.2,1.1-0.4,1.7-0.5
	c0.6-0.2,1.2-0.4,1.8-0.5c0.2-0.1,0.4-0.2,0.7-0.3c0.2-0.1,0.5-0.1,0.7-0.1c0.2,0,0.3,0,0.5,0c0.1,0,0.2-0.1,0.3-0.2
	c0.4-0.1,0.8-0.2,1.2-0.4c0.7-0.2,1.7-0.4,2.9-0.7c1.2-0.3,2.5-0.5,4-0.6l0.7,0c0.1,0,0.3,0,0.4,0c0.1,0,0.3,0,0.4,0
	c1.3,0,2.2,0.4,2.5,1.2c0.3,0.1,0.5,0.3,0.7,0.5c0.2,0.2,0.4,0.4,0.6,0.5c0.1,0.1,0.2,0.2,0.3,0.3c0.1,0.1,0.2,0.1,0.3,0.2
	c0.5,0.8,0.7,1.4,0.5,2c-0.3,0.4-0.6,0.6-1,0.7l-0.5,0.3c-0.3,0-0.6,0-0.7,0c-0.1,0-0.3,0-0.5,0c-0.7,0-1.6,0-2.5,0.1
	c-1,0.1-2,0.2-3,0.4c-1,0.1-2,0.3-2.9,0.6c-0.9,0.2-1.8,0.5-2.5,0.7l-0.8,0.4c-0.2,0.3-0.3,0.6-0.4,0.8c0,0.2-0.1,0.4-0.1,0.5
	c0,0.1-0.1,0.2-0.1,0.4c0,0.1,0,0.2,0,0.4c-0.5,0.6-0.7,1.3-0.7,2.2c-0.2,0.4-0.3,0.6-0.4,0.8c-0.1,0.1-0.1,0.3,0,0.6
	c0.6,0.2,1.1,0.3,1.6,0.3c0.5-0.1,1-0.1,1.5-0.2c0.7-0.1,1.4-0.2,2.1-0.3c0.7-0.1,1.5-0.1,2.2-0.1h1.4l-0.4,0.4l0.2,0.6
	c0.2,0.1,0.3,0.1,0.4,0.2c0.1,0,0.2,0.1,0.3,0.1l0.2,0.4c0.1,0.1,0.2,0.2,0.3,0.3c0.1,0.1,0.2,0.4,0.2,0.7l-1.8,2.5l-0.6,0.2
	c-0.5,0-0.9,0-1.3,0.2c-0.2,0.1-0.4,0.1-0.6,0.2c-0.2,0-0.4,0-0.7,0c-0.6,0.1-1.1,0.2-1.5,0.3c-0.4,0.1-0.8,0.1-1.2,0.2
	c-0.5,0.1-1,0.1-1.5,0.3c-0.5,0.1-1,0.2-1.4,0.4c-0.3,0-0.5,0-0.6,0c-0.2,0-0.5,0-0.7,0.1c-0.2,0.1-0.5,0.1-0.7,0.2
	c-0.1,0.1-0.2,0.2-0.3,0.4c-0.1,0.1-0.1,0.2-0.2,0.4c-0.1,0.4-0.3,0.7-0.5,1v0.7c-0.2,0.3-0.4,0.5-0.4,0.7c0,0.1-0.1,0.3-0.1,0.4
	c-0.1,0.1-0.1,0.2-0.1,0.3c0,0.1,0,0.1,0,0.2C258.9,50.5,258.9,50.9,258.8,51.5z M298.1,31.9c-0.7,0-1.5,0.1-2.4,0.2
	c-0.8,0.1-1.7,0.2-2.5,0.3c-0.6,0.1-1.2,0.2-1.7,0.2c-0.5,0.1-1,0.1-1.5,0.1c-0.2,0.6-0.4,1.2-0.6,1.7c-0.2,0.5-0.4,1-0.7,1.5
	c-0.2,0.5-0.5,1-0.7,1.5c-0.2,0.5-0.4,1-0.5,1.6c-0.3,0.5-0.5,0.9-0.7,1.3c-0.2,0.4-0.3,0.8-0.4,1.3c-0.4,0.4-0.6,0.9-0.8,1.4
	c-0.2,0.5-0.3,0.9-0.4,1.2l-0.2,0.5c-0.2,0.2-0.3,0.3-0.3,0.4c0,0.1-0.1,0.2-0.2,0.3c0,0.3-0.1,0.6-0.3,1c-0.1,0.1-0.1,0.3-0.1,0.4
	c0,0.1,0,0.2,0,0.3c0,0.3-0.1,0.5-0.2,0.6c0,0.1,0,0.3,0,0.5c0,0.1-0.1,0.3-0.1,0.4c-0.1,0.4-0.1,0.6-0.1,0.8
	c0.1,0.1,0.2,0.2,0.2,0.3c0.1,0.1,0.1,0.2,0.2,0.4c0.2,0.1,0.3,0.2,0.4,0.2c0.1,0.1,0.3,0.2,0.5,0.3l0.4,0.4c0.1,0.8,0,1.5-0.4,2
	c-0.4,0.6-1.2,0.8-2.2,0.8h-0.5c-0.1-0.1-0.2-0.3-0.3-0.4c-0.2-0.1-0.4-0.2-0.6-0.2c-0.1-0.1-0.3-0.2-0.4-0.4
	c-0.4-0.2-0.7-0.3-0.9-0.4l-0.4-0.2c0-0.3,0-0.5,0-0.5c-0.2-0.3-0.4-0.6-0.5-0.9c-0.1-0.3-0.2-0.6-0.2-1c-0.1-0.3-0.1-0.5-0.2-0.7
	c-0.1-0.2-0.1-0.4-0.3-0.6c-0.1-1.7,0.1-3.1,0.5-4.3c0.4-1.2,0.8-2.3,1.2-3.4c0.2-0.6,0.5-1.2,0.7-1.8c0.2-0.6,0.4-1.2,0.6-1.9
	l0.4-0.4c0.2-0.5,0.4-0.8,0.5-1.1c0.1-0.3,0.3-0.6,0.4-1c0.1-0.2,0.2-0.4,0.2-0.6c0.1-0.2,0.2-0.4,0.2-0.5c-0.2,0-0.3,0-0.5,0
	c-0.1,0-0.3,0-0.4,0c-0.2,0-0.3,0.1-0.5,0.1c-0.1,0-0.3,0-0.4,0c-0.2,0-0.4,0-0.4,0c-0.3,0.1-0.7,0.2-1.1,0.2h-0.4
	c-0.1,0-0.2,0-0.3,0c-0.1,0-0.1,0-0.2,0c-0.3,0-0.5,0-0.7,0.1c-0.4,0-0.7,0-1,0h-0.4c-0.1,0-0.1,0-0.2,0c-0.1,0-0.2,0-0.2,0
	c-0.2,0-0.4,0-0.7,0c-0.2-0.1-0.5-0.2-0.7-0.3c-0.4-0.5-0.6-0.7-0.7-0.7l-0.4-0.5c0-0.2-0.1-0.3-0.1-0.5c-0.1-0.2-0.1-0.4-0.2-0.6
	c-0.1-0.3-0.2-0.6-0.4-0.9c-0.1-0.4-0.1-0.8-0.1-1.2c0-0.2,0.1-0.4,0.2-0.5c0.1-0.1,0.2-0.2,0.2-0.3l0.1-0.7l0.6,0h1.2
	c0.9,0,1.9,0,2.9-0.1c1-0.1,2-0.2,3-0.3c0.6-0.1,1.2-0.1,1.8-0.2c0.6-0.1,1.2-0.1,1.9-0.2c0.1-0.3,0.2-0.5,0.4-0.7l0.4-0.2
	c0.5,0,0.9,0,1.1,0.2c0.2,0.1,0.4,0.3,0.6,0.4c0.6-0.1,1.3-0.1,1.9-0.2c0.7-0.1,1.3-0.2,2-0.3c1-0.1,2-0.3,3-0.4
	c1-0.1,2-0.2,2.9-0.2c0.4,0,0.8,0,1.2,0c0.4,0,0.7,0.1,1.1,0.1l0.4,0.3c0.1,0.2,0.2,0.3,0.4,0.5c0.2,0.1,0.4,0.3,0.5,0.4
	c0.4,0.3,0.7,0.7,1.1,1.1c0.4,0.4,0.5,1.1,0.4,1.9c-0.2,0.4-0.4,0.6-0.5,0.6l-0.4,0.5l-0.4,0c-0.2,0-0.3,0-0.5,0.1
	c-0.1,0-0.3,0.1-0.4,0.1c-0.1,0.1-0.2,0.1-0.4,0.2c-0.1,0-0.2,0.1-0.4,0.1c-0.3,0-0.5,0-0.7,0C298.5,31.9,298.3,31.9,298.1,31.9z"/>
<path d="M349.5,34.6h-6.4L339.9,53h-3.4l3.2-18.4h-6.3l0.5-2.9H350L349.5,34.6z M362.5,36.8c0.5,0,1,0,1.5,0.1
	c0.5,0.1,1,0.2,1.4,0.3l-0.9,3.5c-0.5-0.1-1-0.2-1.5-0.3c-0.5-0.1-1-0.1-1.5-0.1c-0.6,0-1.1,0-1.6,0.2c-0.5,0.1-0.9,0.3-1.3,0.5
	c-0.4,0.2-0.8,0.5-1.2,0.9c-0.3,0.4-0.7,0.8-0.9,1.3l-1.7,9.8h-3.4l2.8-15.8h3.2l-0.3,2l-0.1,0.6c0.4-0.4,0.7-0.8,1.2-1.2
	c0.4-0.4,0.8-0.7,1.3-0.9c0.5-0.3,1-0.4,1.5-0.6C361.4,36.9,361.9,36.8,362.5,36.8z M370.4,37.2h8.2l-2.2,12.9h4.5l-0.5,2.9h-12.7
	l0.5-2.9h4.7l1.7-10h-4.7L370.4,37.2z M375.5,33.1c0-0.6,0.2-1,0.6-1.4c0.4-0.4,0.9-0.6,1.4-0.6c0.6,0,1,0.1,1.4,0.5
	c0.4,0.4,0.6,0.8,0.6,1.4c0,0.6-0.2,1.1-0.6,1.4c-0.4,0.4-0.9,0.5-1.4,0.6c-0.6,0-1-0.1-1.4-0.5C375.7,34.1,375.5,33.7,375.5,33.1z
	 M399.4,45.1c-0.1,0.7-0.2,1.3-0.4,2c-0.2,0.7-0.4,1.3-0.7,1.9c-0.3,0.6-0.6,1.2-1,1.7c-0.4,0.5-0.8,1-1.3,1.4
	c-0.5,0.4-1.1,0.7-1.7,0.9c-0.6,0.2-1.3,0.3-2.1,0.3c-0.5,0-1-0.1-1.5-0.2c-0.5-0.1-0.9-0.4-1.3-0.6c-0.2-0.2-0.4-0.3-0.6-0.5
	c-0.2-0.2-0.4-0.4-0.5-0.6l-0.6,1.7h-3.1l3.9-22.5h3.4l-1.6,8.2c0.2-0.2,0.4-0.4,0.7-0.6c0.2-0.2,0.5-0.4,0.7-0.5
	c0.4-0.2,0.8-0.4,1.3-0.5c0.5-0.1,1-0.2,1.5-0.2c0.7,0,1.3,0.1,1.9,0.4c0.5,0.2,1,0.5,1.4,0.9c0.4,0.4,0.7,0.8,0.9,1.4
	c0.2,0.5,0.4,1.1,0.6,1.7c0.1,0.6,0.2,1.2,0.2,1.8c0,0.6,0,1.2-0.1,1.8L399.4,45.1z M396,44.8c0-0.4,0.1-0.8,0.1-1.2
	c0-0.4,0-0.8-0.1-1.3c0-0.3-0.1-0.7-0.2-1c-0.1-0.3-0.3-0.6-0.4-0.8c-0.2-0.2-0.5-0.4-0.8-0.6c-0.3-0.1-0.7-0.2-1.1-0.2
	c-0.4,0-0.8,0-1.1,0.1c-0.3,0.1-0.7,0.2-1,0.4c-0.3,0.2-0.6,0.4-0.8,0.6c-0.2,0.3-0.5,0.5-0.7,0.8l-1.1,6.6c0.1,0.3,0.2,0.6,0.4,0.8
	c0.2,0.2,0.4,0.4,0.6,0.6c0.2,0.2,0.5,0.3,0.9,0.4c0.3,0.1,0.7,0.2,1,0.2c0.5,0,0.9-0.1,1.2-0.2c0.3-0.1,0.6-0.3,0.9-0.5
	c0.3-0.2,0.6-0.5,0.9-0.9c0.3-0.4,0.5-0.7,0.6-1.1c0.2-0.4,0.3-0.8,0.4-1.3c0.1-0.4,0.2-0.9,0.3-1.3L396,44.8z M407.8,53.3
	c-0.9,0-1.7-0.2-2.3-0.6c-0.6-0.4-1.1-0.9-1.4-1.5c-0.4-0.7-0.6-1.4-0.6-2.2c-0.1-0.8-0.1-1.6,0-2.4l1.6-9.4h3.4l-1.6,9.4
	c0,0.4-0.1,0.9-0.1,1.3c0,0.4,0.1,0.9,0.2,1.2c0.1,0.4,0.3,0.7,0.6,0.9c0.3,0.2,0.7,0.4,1.3,0.4c0.4,0,0.9,0,1.2-0.1
	c0.4-0.1,0.8-0.2,1.1-0.4c0.3-0.2,0.5-0.4,0.8-0.6c0.3-0.2,0.5-0.5,0.7-0.8l2-11.2h3.4L415.3,53h-3.1l0.3-2.2
	c-0.6,0.8-1.3,1.4-2.1,1.8C409.6,53.1,408.8,53.3,407.8,53.3z M430,33.3l-0.7,3.9h5.8l-0.5,2.6h-5.8l-1.3,7.6c0,0.4-0.1,0.8,0,1.2
	c0,0.4,0.2,0.7,0.3,0.9c0.1,0.3,0.4,0.5,0.7,0.6c0.3,0.2,0.7,0.2,1.1,0.2c0.6,0,1.1,0,1.7-0.1c0.5-0.1,1.1-0.2,1.6-0.3l0.2,2.4
	c-0.7,0.4-1.4,0.6-2.2,0.7c-0.8,0.1-1.6,0.2-2.3,0.2c-0.9,0-1.6-0.2-2.2-0.5c-0.6-0.3-1.1-0.7-1.4-1.2c-0.4-0.5-0.6-1.1-0.8-1.8
	c-0.1-0.7-0.2-1.4-0.1-2.2l1.3-7.8h-3.7l0.5-2.6h3.7l0.7-3.9H430z M444.7,53.3c-1.1,0-2-0.2-2.9-0.6c-0.9-0.4-1.6-1-2.1-1.7
	c-0.6-0.7-1-1.5-1.3-2.4c-0.3-0.9-0.3-1.9-0.2-2.9l0.1-0.6c0.1-0.8,0.3-1.6,0.5-2.3c0.3-0.8,0.6-1.5,1.1-2.1c0.4-0.5,0.7-1,1.2-1.4
	c0.4-0.4,0.9-0.8,1.5-1.2c0.6-0.4,1.2-0.7,1.9-0.8c0.7-0.2,1.4-0.3,2.2-0.3c1.1,0,2,0.3,2.8,0.7c0.8,0.4,1.4,1,1.9,1.7
	c0.5,0.7,0.8,1.5,1,2.5c0.2,0.9,0.2,1.9,0.1,2.9l-0.2,1.5h-10.6c0,0.6,0,1.1,0.1,1.6c0.1,0.5,0.4,1,0.6,1.3c0.3,0.4,0.7,0.7,1.1,1
	c0.5,0.2,1,0.4,1.6,0.4c0.9,0,1.7-0.1,2.4-0.5c0.8-0.4,1.4-0.8,2-1.5l1.7,1.8c-0.7,1-1.7,1.7-2.8,2.2
	C447.2,53.1,445.9,53.3,444.7,53.3z M446.4,39.7c-0.6,0-1.1,0.1-1.6,0.3c-0.5,0.2-0.9,0.5-1.2,0.9c-0.4,0.4-0.7,0.8-1,1.3
	c-0.3,0.5-0.5,1-0.7,1.5l7.2,0l0.1-0.3c0.1-0.5,0.1-0.9,0-1.4c-0.1-0.4-0.2-0.8-0.5-1.1c-0.2-0.3-0.6-0.6-0.9-0.8
	C447.4,39.8,446.9,39.7,446.4,39.7z"/>
</svg>
